#!OML:ASF H:\LiuWeirdWalks\Patient Classification 1\Patient 1\Session 1\male.ASF
:FULLY-SPECIFIED
:DEGREES
174
root 0.798164 16.1499 8.12284 6.40272 15.5344 -9.50749
lowerback 5.46203 4.42646 4.03223
upperback -0.588199 6.08588 -2.53525
thorax -2.96618 2.94892 -5.33329
lowerneck -18.605 -4.39922 -0.969583
upperneck 2.44064 -5.66282 1.22435
head 3.72116 -2.71935 0.0615076
rclavicle -7.79236e-014 -2.70347e-014
rhumerus -33.3662 11.2786 -92.4104
rradius 33.9056
rwrist -10.1053
rhand -16.2216 -4.70613
rfingers 7.12502
rthumb 9.98636 -34.4492
lclavicle -7.79236e-014 -2.70347e-014
lhumerus -48.411 2.18176 76.7936
lradius 49.5685
lwrist 17.0469
lhand -12.6502 2.80196
lfingers 7.12502
lthumb 13.4304 32.349
rfemur 25.3127 -0.916569 36.7312
rtibia 5.20032
rfoot -12.4976 -31.0804
rtoes -8.98205
lfemur -57.7687 -0.819357 -8.52657
ltibia 58.695
lfoot -7.96495 2.24143
ltoes -12.3749
175
root 0.847925 16.1303 8.37111 6.53464 15.1732 -9.35783
lowerback 5.46135 4.59838 3.78623
upperback -0.663825 6.29294 -2.73662
thorax -3.02327 3.05215 -5.42211
lowerneck -18.5094 -4.47595 -0.924276
upperneck 2.03004 -5.78028 1.40432
head 3.58478 -2.76816 0.107843
rclavicle -1.39149e-014 4.77083e-015
rhumerus -33.8288 12.7305 -93.1327
rradius 34.7836
rwrist -10.4404
rhand -16.0839 -4.9923
rfingers 7.12502
rthumb 10.1193 -34.729
lclavicle -1.39149e-014 4.77083e-015
lhumerus -48.0622 2.46799 76.5834
lradius 50.4251
lwrist 17.9982
lhand -13.4092 2.96576
lfingers 7.12502
lthumb 12.6987 32.5597
rfemur 24.7455 -0.670255 36.6
rtibia 7.80812
rfoot -12.1466 -31.3039
rtoes -9.86139
lfemur -57.4797 -0.191457 -8.88232
ltibia 59.8482
lfoot -8.4133 2.08821
ltoes -10.9725
176
root 0.89941 16.1198 8.62092 6.62378 14.8309 -9.20637
lowerback 5.49962 4.72175 3.53593
upperback -0.759983 6.43637 -2.91063
thorax -3.13488 3.12175 -5.48239
lowerneck -18.2099 -4.54827 -0.924111
upperneck 1.25046 -5.88632 1.63218
head 3.7394 -2.8139 0.19112
rclavicle -1.78906e-014 3.65764e-014
rhumerus -34.3288 14.3002 -93.8727
rradius 35.7178
rwrist -10.5571
rhand -15.7096 -5.22202
rfingers 7.12502
rthumb 10.4803 -34.9408
lclavicle -1.78906e-014 3.65764e-014
lhumerus -47.7004 2.89916 76.3617
lradius 51.0983
lwrist 18.8556
lhand -14.1874 3.04708
lfingers 7.12502
lthumb 11.9484 32.6861
rfemur 24.1525 -0.435577 36.411
rtibia 10.449
rfoot -11.4567 -31.3862
rtoes -10.8064
lfemur -57.033 0.410056 -9.25143
ltibia 60.8699
lfoot -9.08121 2.04859
ltoes -10.0546
177
root 0.951998 16.1175 8.87049 6.6697 14.539 -9.08533
lowerback 5.58291 4.78645 3.31908
upperback -0.881537 6.50514 -3.0487
thorax -3.30769 3.15138 -5.52665
lowerneck -18.144 -4.6179 -0.941371
upperneck 1.06699 -5.99087 1.91985
head 3.67339 -2.852 0.285196
rclavicle -1.12512e-013 3.97569e-014
rhumerus -34.8591 15.8386 -94.595
rradius 36.7022
rwrist -10.3611
rhand -15.0499 -5.32973
rfingers 7.12502
rthumb 11.1166 -35.0153
lclavicle -1.12512e-013 3.97569e-014
lhumerus -47.3339 3.47362 76.1255
lradius 51.5752
lwrist 19.5695
lhand -14.9824 3.06384
lfingers 7.12502
lthumb 11.1817 32.7459
rfemur 23.4218 -0.861338 35.9321
rtibia 13.2868
rfoot -10.7116 -30.6913
rtoes -11.8401
lfemur -56.4589 0.93411 -9.56527
ltibia 61.7598
lfoot -9.91953 2.15204
ltoes -9.70838
178
root 1.00568 16.1236 9.11912 6.66579 14.2825 -9.00791
lowerback 5.69647 4.79251 3.1485
upperback -1.01659 6.49995 -3.14213
thorax -3.52045 3.14213 -5.55029
lowerneck -18.1053 -4.67196 -0.990035
upperneck 0.995314 -6.0757 2.28213
head 3.65769 -2.87636 0.409191
rclavicle 1.19271e-014 6.36111e-015
rhumerus -35.3907 17.266 -95.2585
rradius 37.7334
rwrist -9.82022
rhand -14.0728 -5.27683
rfingers 7.12502
rthumb 12.059 -34.9094
lclavicle 1.19271e-014 6.36111e-015
lhumerus -46.9593 4.21289 75.8766
lradius 51.8382
lwrist 20.0991
lhand -15.8176 3.07462
lfingers 7.12502
lthumb 10.3761 32.7986
rfemur 22.5369 -1.29536 35.4717
rtibia 16.3335
rfoot -9.63873 -29.8864
rtoes -13.04
lfemur -55.7439 1.35675 -9.78022
ltibia 62.4941
lfoot -10.8793 2.38394
ltoes -9.88328
179
root 1.06039 16.1393 9.36565 6.62656 14.0503 -8.95515
lowerback 5.81988 4.74147 3.00411
upperback -1.1527 6.42121 -3.19179
thorax -3.75057 3.09559 -5.53934
lowerneck -18.1036 -4.70392 -1.04591
upperneck 1.01076 -6.13546 2.69222
head 3.68314 -2.88519 0.550822
rclavicle 1.20464e-013 -1.43125e-014
rhumerus -35.9011 18.5253 -95.8289
rradius 38.8148
rwrist -8.93797
rhand -12.8201 -5.00639
rfingers 7.12502
rthumb 13.2666 -34.5642
lclavicle 1.20464e-013 -1.43125e-014
lhumerus -46.5819 5.10934 75.6258
lradius 51.916
lwrist 20.4505
lhand -16.6964 3.06025
lfingers 7.12502
lthumb 9.52829 32.8248
rfemur 21.4953 -1.75464 34.9948
rtibia 19.5405
rfoot -8.18859 -28.9356
rtoes -14.2706
lfemur -54.8834 1.68148 -9.91569
ltibia 63.0397
lfoot -11.8768 2.71835
ltoes -10.3905
180
root 1.1158 16.1672 9.61023 6.55652 13.7939 -8.915
lowerback 5.94633 4.65406 2.86988
upperback -1.27147 6.29547 -3.20143
thorax -3.97294 3.02651 -5.48778
lowerneck -18.4105 -4.7006 -1.03305
upperneck 1.57583 -6.17003 3.12672
head 3.49723 -2.86767 0.629095
rclavicle -4.41302e-014 1.43125e-014
rhumerus -36.3591 19.5756 -96.264
rradius 39.9647
rwrist -7.79758
rhand -11.3897 -4.50519
rfingers 7.12502
rthumb 14.6451 -33.968
lclavicle -4.41302e-014 1.43125e-014
lhumerus -46.1797 6.1481 75.3892
lradius 51.8222
lwrist 20.6263
lhand -17.6326 3.07152
lfingers 7.12502
lthumb 8.62494 32.8753
rfemur 20.3136 -2.22255 34.4748
rtibia 22.8464
rfoot -6.29513 -27.8383
rtoes -15.3948
lfemur -53.8454 1.95011 -9.9889
ltibia 63.3612
lfoot -12.8472 3.11291
ltoes -10.9981
181
root 1.17172 16.2092 9.85343 6.44524 13.4609 -8.86428
lowerback 6.063 4.54109 2.70669
upperback -1.36251 6.13419 -3.17058
thorax -4.17178 2.94232 -5.37158
lowerneck -18.5379 -4.66806 -1.04898
upperneck 1.69796 -6.15836 3.5463
head 3.56996 -2.8355 0.757022
rclavicle -1.82882e-014 2.70347e-014
rhumerus -36.7713 20.447 -96.5696
rradius 41.1837
rwrist -6.50738
rhand -9.88041 -3.81418
rfingers 7.12502
rthumb 16.0988 -33.1655
lclavicle -1.82882e-014 2.70347e-014
lhumerus -45.7828 7.30794 75.1744
lradius 51.6028
lwrist 20.6717
lhand -18.6332 3.16386
lfingers 7.12502
lthumb 7.65915 33.0052
rfemur 19.0419 -2.69922 33.8612
rtibia 26.1888
rfoot -3.91816 -26.5772
rtoes -15.8987
lfemur -52.584 2.20554 -10.0367
ltibia 63.4321
lfoot -13.758 3.52485
ltoes -11.5781
182
root 1.22756 16.2673 10.0948 6.29938 13.0186 -8.77148
lowerback 6.16901 4.41245 2.47933
upperback -1.42278 5.94747 -3.10915
thorax -4.3438 2.84918 -5.18166
lowerneck -18.6648 -4.60123 -1.02071
upperneck 1.78959 -6.10703 3.91219
head 3.62918 -2.7862 0.865719
rclavicle -1.308e-013 2.8625e-014
rhumerus -37.1372 21.1936 -96.7611
rradius 42.4622
rwrist -5.19922
rhand -8.44766 -2.95589
rfingers 7.12502
rthumb 17.4781 -32.1902
lclavicle -1.308e-013 2.8625e-014
lhumerus -45.4165 8.50757 75.0065
lradius 51.3386
lwrist 20.7135
lhand -19.7043 3.42213
lfingers 7.12502
lthumb 6.62527 33.2985
rfemur 17.7002 -3.15796 33.1219
rtibia 29.5131
rfoot -1.09675 -25.1495
rtoes -15.2957
lfemur -51.0814 2.48232 -10.1071
ltibia 63.2281
lfoot -14.5609 3.97513
ltoes -12.0854
